<?xml version="1.0" encoding="UTF-8"?>
<svg width="300px" height="200px" viewBox="0 0 300 200" version="1.1" xmlns="http://www.w3.org/2000/svg" xmlns:xlink="http://www.w3.org/1999/xlink">
    <title>Group 2</title>
    <g id="Page-1" stroke="none" stroke-width="1" fill="none" fill-rule="evenodd">
        <g id="Style:-Gradient" transform="translate(-300.000000, -200.000000)" fill="#FFFFFF">
            <g id="Group" transform="translate(300.000000, 200.000000)">
                <g id="Group-2">
                    <polygon id="Path" points="200 0 300 0 297 3 203 3"></polygon>
                    <polygon id="Path" points="300 0 300 100 297 100 297 3"></polygon>
                    <polygon id="Path" points="200 103 200 0 203 3.09 203 103"></polygon>
                    <polygon id="Path" points="300 100 300 200 297 197 297 100"></polygon>
                    <polygon id="Path" points="300 200 200 200 200 197 297 197"></polygon>
                    <polygon id="Path" points="100 100 200 100 200 103 100 103"></polygon>
                    <polygon id="Path" points="200 200 100 200 100 197 200 197"></polygon>
                    <polygon id="Path" points="0 100 100 100 100 103 3 103"></polygon>
                    <polygon id="Path" points="100 200 0 200 3 197 100 197"></polygon>
                    <polygon id="Path" points="0 200 0 100 3 103 3 197"></polygon>
                </g>
            </g>
        </g>
    </g>
</svg>